<svg id="svg" version="1.1" xmlns="http://www.w3.org/2000/svg" xmlns:xlink="http://www.w3.org/1999/xlink" width="400" height="400" viewBox="0, 0, 400,400"><g id="svgg"><path id="path0" d="M181.800 41.821 C 179.160 42.108,176.190 42.459,175.200 42.602 C 174.210 42.744,172.500 42.946,171.400 43.050 C 170.300 43.154,169.040 43.397,168.600 43.590 C 168.160 43.783,166.900 44.059,165.800 44.201 C 161.436 44.769,160.787 44.898,160.574 45.242 C 160.452 45.439,159.881 45.600,159.305 45.600 C 158.234 45.600,155.951 46.220,154.705 46.849 C 154.323 47.042,153.558 47.200,153.005 47.200 C 152.452 47.200,152.000 47.380,152.000 47.600 C 152.000 47.820,151.460 48.000,150.800 48.000 C 150.140 48.000,149.600 48.180,149.600 48.400 C 149.600 48.620,149.240 48.800,148.800 48.800 C 148.360 48.800,148.000 48.980,148.000 49.200 C 148.000 49.420,147.747 49.600,147.438 49.600 C 146.772 49.600,143.459 51.268,143.267 51.700 C 143.193 51.865,142.878 52.000,142.567 52.000 C 142.255 52.000,142.000 52.150,142.000 52.332 C 142.000 52.515,141.505 52.920,140.900 53.232 C 139.283 54.067,133.200 60.333,133.200 61.164 C 133.200 61.359,132.660 62.545,132.000 63.800 C 131.340 65.055,130.800 66.502,130.800 67.017 C 130.800 67.532,130.620 68.064,130.400 68.200 C 130.180 68.336,130.000 69.211,130.000 70.144 C 130.000 71.077,129.808 72.032,129.573 72.267 C 129.071 72.769,128.510 112.688,128.963 115.700 L 129.249 117.600 166.625 117.600 L 204.000 117.600 204.000 125.000 L 204.000 132.400 144.224 132.400 C 104.804 132.400,84.363 132.536,84.200 132.800 C 84.064 133.020,82.793 133.200,81.376 133.200 C 79.925 133.200,78.800 133.375,78.800 133.600 C 78.800 133.820,77.900 134.000,76.800 134.000 C 75.700 134.000,74.800 134.180,74.800 134.400 C 74.800 134.620,74.260 134.800,73.600 134.800 C 72.940 134.800,72.400 134.980,72.400 135.200 C 72.400 135.420,71.860 135.600,71.200 135.600 C 70.540 135.600,70.000 135.780,70.000 136.000 C 70.000 136.220,69.721 136.400,69.381 136.400 C 69.040 136.400,68.016 136.760,67.106 137.200 C 66.195 137.640,65.214 138.000,64.925 138.000 C 64.636 138.000,64.400 138.180,64.400 138.400 C 64.400 138.620,64.164 138.800,63.875 138.800 C 63.587 138.800,62.964 139.160,62.492 139.600 C 62.020 140.040,61.396 140.400,61.105 140.400 C 60.814 140.400,60.317 140.760,60.000 141.200 C 59.683 141.640,59.230 142.000,58.995 142.000 C 58.421 142.000,51.200 149.005,51.200 149.562 C 51.200 149.803,51.020 150.000,50.800 150.000 C 50.580 150.000,50.400 150.230,50.400 150.512 C 50.400 150.793,50.040 151.283,49.600 151.600 C 49.160 151.917,48.800 152.497,48.800 152.888 C 48.800 153.280,48.663 153.600,48.496 153.600 C 48.226 153.600,47.325 155.270,44.751 160.538 C 44.338 161.384,44.000 162.408,44.000 162.814 C 44.000 163.220,43.820 163.664,43.600 163.800 C 43.380 163.936,43.200 164.489,43.200 165.029 C 43.200 165.569,43.029 166.323,42.820 166.705 C 42.390 167.492,41.582 171.654,41.307 174.500 C 41.206 175.545,40.960 176.400,40.761 176.400 C 40.563 176.400,40.400 177.199,40.400 178.176 C 40.400 179.153,40.220 180.064,40.000 180.200 C 39.780 180.336,39.600 181.427,39.600 182.624 C 39.600 183.821,39.420 184.800,39.200 184.800 C 38.971 184.800,38.800 186.000,38.800 187.600 C 38.800 189.200,38.629 190.400,38.400 190.400 C 38.160 190.400,38.000 192.000,38.000 194.400 C 38.000 196.800,37.840 198.400,37.600 198.400 C 37.347 198.400,37.200 201.333,37.200 206.400 C 37.200 211.467,37.347 214.400,37.600 214.400 C 37.841 214.400,38.000 216.067,38.000 218.600 C 38.000 221.133,38.159 222.800,38.400 222.800 C 38.629 222.800,38.800 224.000,38.800 225.600 C 38.800 227.200,38.971 228.400,39.200 228.400 C 39.420 228.400,39.600 229.289,39.600 230.376 C 39.600 231.463,39.780 232.464,40.000 232.600 C 40.220 232.736,40.400 233.636,40.400 234.600 C 40.400 235.564,40.557 236.450,40.750 236.569 C 40.942 236.688,41.205 237.734,41.335 238.893 C 41.464 240.052,41.865 242.170,42.227 243.600 C 42.588 245.030,42.974 246.876,43.084 247.703 C 43.194 248.529,43.445 249.305,43.642 249.426 C 43.839 249.548,44.000 250.076,44.000 250.600 C 44.000 251.124,44.180 251.664,44.400 251.800 C 44.620 251.936,44.800 252.399,44.800 252.829 C 44.800 253.259,44.959 253.923,45.153 254.305 C 45.496 254.978,45.741 255.550,46.864 258.300 C 47.156 259.015,47.531 259.600,47.698 259.600 C 47.864 259.600,48.000 259.834,48.000 260.120 C 48.000 260.856,48.941 262.793,49.300 262.797 C 49.465 262.799,49.600 263.160,49.600 263.600 C 49.600 264.040,49.780 264.400,50.000 264.400 C 50.220 264.400,50.400 264.760,50.400 265.200 C 50.400 265.640,50.550 266.000,50.732 266.000 C 50.915 266.000,51.319 266.495,51.630 267.100 C 51.940 267.705,52.511 268.491,52.897 268.847 C 53.284 269.203,53.600 269.688,53.600 269.925 C 53.600 270.456,58.272 275.165,60.308 276.686 C 61.128 277.299,62.148 278.115,62.575 278.500 C 63.002 278.885,63.587 279.200,63.875 279.200 C 64.164 279.200,64.400 279.380,64.400 279.600 C 64.400 279.820,64.760 280.000,65.200 280.000 C 65.640 280.000,66.000 280.180,66.000 280.400 C 66.000 280.620,66.360 280.800,66.800 280.800 C 67.240 280.800,67.600 280.980,67.600 281.200 C 67.600 281.420,68.140 281.600,68.800 281.600 C 69.460 281.600,70.000 281.780,70.000 282.000 C 70.000 282.220,70.540 282.400,71.200 282.400 C 71.860 282.400,72.400 282.580,72.400 282.800 C 72.400 283.020,73.109 283.200,73.976 283.200 C 74.843 283.200,75.664 283.380,75.800 283.600 C 75.959 283.857,82.737 284.000,94.824 284.000 L 113.600 284.000 113.600 260.424 C 113.600 245.137,113.741 236.760,114.000 236.600 C 114.220 236.464,114.400 235.384,114.400 234.200 C 114.400 233.016,114.580 231.936,114.800 231.800 C 115.020 231.664,115.200 231.023,115.200 230.376 C 115.200 229.729,115.380 229.200,115.600 229.200 C 115.820 229.200,116.000 228.748,116.000 228.195 C 116.000 227.642,116.180 226.832,116.400 226.395 C 116.620 225.958,116.980 225.242,117.200 224.805 C 117.420 224.368,117.600 223.738,117.600 223.405 C 117.600 223.072,117.780 222.800,118.000 222.800 C 118.220 222.800,118.400 222.365,118.400 221.833 C 118.400 221.302,118.535 220.807,118.700 220.733 C 119.076 220.566,120.375 218.436,120.671 217.500 C 120.793 217.115,121.052 216.800,121.247 216.800 C 121.441 216.800,121.600 216.575,121.600 216.300 C 121.601 216.025,122.051 215.277,122.600 214.638 C 123.150 213.999,123.600 213.351,123.600 213.199 C 123.600 213.047,123.959 212.490,124.398 211.961 C 124.837 211.433,125.692 210.392,126.298 209.650 C 127.873 207.721,130.770 204.800,131.111 204.798 C 131.270 204.797,132.292 203.987,133.383 202.998 C 134.474 202.009,135.559 201.200,135.795 201.200 C 136.031 201.200,136.483 200.840,136.800 200.400 C 137.117 199.960,137.697 199.600,138.088 199.600 C 138.480 199.600,138.800 199.420,138.800 199.200 C 138.800 198.980,139.070 198.800,139.400 198.800 C 139.730 198.800,140.000 198.620,140.000 198.400 C 140.000 198.180,140.270 198.000,140.600 198.000 C 140.930 198.000,141.201 197.865,141.203 197.700 C 141.207 197.294,143.186 196.400,144.080 196.400 C 144.476 196.400,144.800 196.220,144.800 196.000 C 144.800 195.780,145.160 195.600,145.600 195.600 C 146.040 195.600,146.400 195.420,146.400 195.200 C 146.400 194.980,146.940 194.800,147.600 194.800 C 148.260 194.800,148.800 194.620,148.800 194.400 C 148.800 194.180,149.340 194.000,150.000 194.000 C 150.660 194.000,151.200 193.820,151.200 193.600 C 151.200 193.380,152.100 193.200,153.200 193.200 C 154.300 193.200,155.200 193.020,155.200 192.800 C 155.200 192.536,167.259 192.400,190.576 192.400 C 210.033 192.400,226.047 192.247,226.163 192.060 C 226.278 191.873,227.981 191.616,229.946 191.489 C 231.911 191.361,233.852 191.076,234.260 190.855 C 234.667 190.634,235.855 190.222,236.900 189.939 C 237.945 189.657,238.800 189.285,238.800 189.113 C 238.800 188.941,239.149 188.800,239.576 188.800 C 240.003 188.800,240.464 188.620,240.600 188.400 C 240.736 188.180,241.197 188.000,241.624 188.000 C 242.051 188.000,242.400 187.820,242.400 187.600 C 242.400 187.380,242.678 187.200,243.017 187.200 C 243.356 187.200,244.020 186.840,244.492 186.400 C 244.964 185.960,245.587 185.600,245.875 185.600 C 246.164 185.600,246.400 185.420,246.400 185.200 C 246.400 184.980,246.632 184.800,246.916 184.800 C 247.200 184.800,248.228 184.080,249.200 183.200 C 250.172 182.320,251.122 181.600,251.310 181.600 C 251.739 181.600,255.600 177.662,255.600 177.224 C 255.600 177.046,256.237 176.205,257.017 175.354 C 257.796 174.504,258.535 173.401,258.660 172.904 C 258.785 172.407,259.047 172.000,259.243 172.000 C 259.440 172.000,259.600 171.730,259.600 171.400 C 259.600 171.070,259.780 170.800,260.000 170.800 C 260.220 170.800,260.400 170.440,260.400 170.000 C 260.400 169.560,260.580 169.200,260.800 169.200 C 261.020 169.200,261.200 168.660,261.200 168.000 C 261.200 167.340,261.380 166.800,261.600 166.800 C 261.820 166.800,262.000 166.260,262.000 165.600 C 262.000 164.940,262.180 164.400,262.400 164.400 C 262.620 164.400,262.800 163.680,262.800 162.800 C 262.800 161.920,262.980 161.200,263.200 161.200 C 263.464 161.200,263.600 146.867,263.600 119.000 C 263.600 91.133,263.464 76.800,263.200 76.800 C 262.980 76.800,262.800 75.990,262.800 75.000 C 262.800 74.010,262.620 73.200,262.400 73.200 C 262.180 73.200,262.000 72.581,262.000 71.824 C 262.000 71.067,261.820 70.336,261.600 70.200 C 261.380 70.064,261.200 69.603,261.200 69.176 C 261.200 68.749,261.020 68.400,260.800 68.400 C 260.580 68.400,260.400 68.165,260.400 67.879 C 260.400 65.060,250.101 52.000,247.879 52.000 C 247.603 52.000,247.117 51.640,246.800 51.200 C 246.483 50.760,245.943 50.400,245.600 50.400 C 245.257 50.400,244.717 50.040,244.400 49.600 C 244.083 49.160,243.503 48.800,243.112 48.800 C 242.720 48.800,242.400 48.620,242.400 48.400 C 242.400 48.180,242.040 48.000,241.600 48.000 C 241.160 48.000,240.800 47.820,240.800 47.600 C 240.800 47.380,240.350 47.200,239.800 47.200 C 239.250 47.200,238.800 47.020,238.800 46.800 C 238.800 46.580,238.451 46.400,238.024 46.400 C 237.597 46.400,237.136 46.220,237.000 46.000 C 236.864 45.780,236.324 45.600,235.800 45.600 C 235.276 45.600,234.736 45.420,234.600 45.200 C 234.464 44.980,233.744 44.800,233.000 44.800 C 232.256 44.800,231.536 44.620,231.400 44.400 C 231.264 44.180,230.389 44.000,229.456 44.000 C 228.523 44.000,227.589 43.837,227.380 43.639 C 227.171 43.440,226.190 43.187,225.200 43.076 C 224.210 42.966,222.770 42.772,222.000 42.646 C 212.920 41.157,191.887 40.726,181.800 41.821 M162.400 76.400 C 162.400 76.620,162.810 76.800,163.312 76.800 C 163.813 76.800,164.483 77.160,164.800 77.600 C 165.117 78.040,165.567 78.400,165.800 78.400 C 166.033 78.400,166.488 78.785,166.812 79.255 C 167.135 79.726,167.805 80.527,168.300 81.037 C 168.795 81.547,169.200 82.242,169.200 82.582 C 169.200 82.922,169.380 83.200,169.600 83.200 C 169.820 83.200,170.000 83.740,170.000 84.400 C 170.000 85.060,170.180 85.600,170.400 85.600 C 170.620 85.600,170.800 86.500,170.800 87.600 C 170.800 88.700,170.620 89.600,170.400 89.600 C 170.180 89.600,170.000 90.140,170.000 90.800 C 170.000 91.460,169.820 92.000,169.600 92.000 C 169.380 92.000,169.200 92.270,169.200 92.600 C 169.200 92.930,169.020 93.200,168.800 93.200 C 168.580 93.200,168.400 93.425,168.400 93.700 C 168.399 94.409,166.799 96.103,165.500 96.770 C 164.895 97.081,164.400 97.485,164.400 97.668 C 164.400 97.850,164.055 98.000,163.633 98.000 C 163.212 98.000,162.804 98.188,162.728 98.417 C 162.365 99.504,153.600 98.625,153.600 97.502 C 153.600 97.336,153.325 97.200,152.989 97.200 C 151.695 97.200,148.000 92.761,148.000 91.205 C 148.000 90.762,147.820 90.400,147.600 90.400 C 147.372 90.400,147.200 89.208,147.200 87.624 C 147.200 86.097,147.380 84.736,147.600 84.600 C 147.820 84.464,148.000 83.913,148.000 83.376 C 148.000 82.839,148.180 82.400,148.400 82.400 C 148.620 82.400,148.800 82.159,148.800 81.864 C 148.800 81.088,152.204 77.600,152.960 77.600 C 153.312 77.600,153.600 77.420,153.600 77.200 C 153.600 76.980,153.960 76.800,154.400 76.800 C 154.840 76.800,155.200 76.620,155.200 76.400 C 155.200 76.163,156.667 76.000,158.800 76.000 C 160.933 76.000,162.400 76.163,162.400 76.400 " stroke="none" fill="#0474bc" fill-rule="evenodd"></path><path id="path1" d="M279.022 116.900 C 278.916 117.395,278.776 128.765,278.712 142.168 C 278.621 161.151,278.485 166.572,278.097 166.701 C 277.824 166.792,277.600 167.484,277.600 168.239 C 277.600 168.993,277.439 169.923,277.243 170.305 C 277.047 170.687,276.372 172.620,275.743 174.600 C 275.114 176.580,274.465 178.260,274.300 178.333 C 274.135 178.407,274.000 178.812,274.000 179.233 C 274.000 179.655,273.820 180.000,273.600 180.000 C 273.380 180.000,273.200 180.320,273.200 180.712 C 273.200 181.103,272.840 181.683,272.400 182.000 C 271.960 182.317,271.600 182.897,271.600 183.288 C 271.600 183.680,271.450 184.000,271.268 184.000 C 271.085 184.000,270.681 184.495,270.370 185.100 C 270.060 185.705,269.489 186.491,269.103 186.847 C 268.716 187.203,268.400 187.714,268.400 187.983 C 268.400 188.490,262.565 194.326,259.847 196.537 C 258.993 197.232,257.876 198.205,257.365 198.700 C 256.854 199.195,256.198 199.600,255.906 199.600 C 255.615 199.600,255.117 199.960,254.800 200.400 C 254.483 200.840,253.903 201.200,253.512 201.200 C 253.120 201.200,252.800 201.380,252.800 201.600 C 252.800 201.820,252.440 202.000,252.000 202.000 C 251.560 202.000,251.200 202.180,251.200 202.400 C 251.200 202.620,250.840 202.800,250.400 202.800 C 249.960 202.800,249.600 202.980,249.600 203.200 C 249.600 203.420,249.240 203.600,248.800 203.600 C 248.360 203.600,248.000 203.780,248.000 204.000 C 248.000 204.220,247.640 204.400,247.200 204.400 C 246.760 204.400,246.400 204.580,246.400 204.800 C 246.400 205.020,245.860 205.200,245.200 205.200 C 244.540 205.200,244.000 205.380,244.000 205.600 C 244.000 205.820,243.370 206.000,242.600 206.000 C 241.830 206.000,241.200 206.180,241.200 206.400 C 241.200 206.620,240.401 206.800,239.424 206.800 C 238.447 206.800,237.536 206.980,237.400 207.200 C 237.238 207.462,224.863 207.600,201.576 207.600 C 182.009 207.600,166.000 207.754,166.000 207.943 C 166.000 208.131,164.605 208.390,162.900 208.518 C 160.025 208.733,158.015 209.201,156.305 210.054 C 155.923 210.244,155.259 210.400,154.829 210.400 C 154.399 210.400,153.936 210.580,153.800 210.800 C 153.664 211.020,153.203 211.200,152.776 211.200 C 152.349 211.200,152.000 211.380,152.000 211.600 C 152.000 211.820,151.640 212.000,151.200 212.000 C 150.760 212.000,150.400 212.180,150.400 212.400 C 150.400 212.620,150.040 212.800,149.600 212.800 C 149.160 212.800,148.800 212.980,148.800 213.200 C 148.800 213.420,148.564 213.600,148.275 213.600 C 147.987 213.600,147.364 213.960,146.892 214.400 C 146.420 214.840,145.796 215.200,145.505 215.200 C 145.214 215.200,144.717 215.560,144.400 216.000 C 144.083 216.440,143.681 216.800,143.507 216.800 C 142.978 216.800,135.840 224.140,135.232 225.309 C 134.920 225.909,134.515 226.400,134.332 226.400 C 134.150 226.400,134.000 226.670,134.000 227.000 C 134.000 227.330,133.820 227.600,133.600 227.600 C 133.380 227.600,133.200 227.960,133.200 228.400 C 133.200 228.840,133.020 229.200,132.800 229.200 C 132.580 229.200,132.400 229.560,132.400 230.000 C 132.400 230.440,132.220 230.800,132.000 230.800 C 131.780 230.800,131.600 231.160,131.600 231.600 C 131.600 232.040,131.420 232.400,131.200 232.400 C 130.980 232.400,130.800 232.839,130.800 233.376 C 130.800 233.913,130.620 234.464,130.400 234.600 C 130.180 234.736,130.000 235.341,130.000 235.944 C 130.000 236.547,129.775 237.265,129.500 237.540 C 129.106 237.934,129.000 247.165,129.000 281.000 C 129.000 314.835,129.106 324.066,129.500 324.460 C 129.775 324.735,130.000 325.543,130.000 326.256 C 130.000 326.969,130.180 327.664,130.400 327.800 C 130.620 327.936,130.800 328.476,130.800 329.000 C 130.800 329.524,130.980 330.064,131.200 330.200 C 131.420 330.336,131.600 330.887,131.600 331.424 C 131.600 331.961,131.780 332.400,132.000 332.400 C 132.220 332.400,132.400 332.760,132.400 333.200 C 132.400 333.640,132.580 334.000,132.800 334.000 C 133.020 334.000,133.200 334.360,133.200 334.800 C 133.200 335.240,133.380 335.600,133.600 335.600 C 133.820 335.600,134.000 335.920,134.000 336.312 C 134.000 336.703,134.360 337.283,134.800 337.600 C 135.240 337.917,135.600 338.380,135.600 338.629 C 135.600 338.878,136.140 339.646,136.800 340.337 C 137.460 341.028,138.000 341.688,138.000 341.805 C 138.000 342.082,142.318 346.400,142.595 346.400 C 142.712 346.400,143.372 346.940,144.063 347.600 C 144.754 348.260,145.479 348.800,145.676 348.800 C 145.873 348.800,146.420 349.160,146.892 349.600 C 147.364 350.040,147.987 350.400,148.275 350.400 C 148.564 350.400,148.800 350.580,148.800 350.800 C 148.800 351.020,149.160 351.200,149.600 351.200 C 150.040 351.200,150.400 351.380,150.400 351.600 C 150.400 351.820,150.760 352.000,151.200 352.000 C 151.640 352.000,152.000 352.180,152.000 352.400 C 152.000 352.620,152.349 352.800,152.776 352.800 C 153.203 352.800,153.664 352.980,153.800 353.200 C 153.936 353.420,154.487 353.600,155.024 353.600 C 155.561 353.600,156.000 353.780,156.000 354.000 C 156.000 354.220,156.540 354.400,157.200 354.400 C 157.860 354.400,158.400 354.580,158.400 354.800 C 158.400 355.020,159.019 355.200,159.776 355.200 C 160.533 355.200,161.264 355.380,161.400 355.600 C 161.536 355.820,162.411 356.000,163.344 356.000 C 164.277 356.000,165.211 356.163,165.420 356.361 C 165.803 356.725,167.776 357.043,172.200 357.454 C 173.520 357.576,174.829 357.864,175.108 358.094 C 176.503 359.240,208.033 358.852,216.600 357.582 C 218.140 357.354,220.390 357.069,221.600 356.948 C 222.810 356.828,223.971 356.565,224.180 356.365 C 224.389 356.164,225.413 356.000,226.456 356.000 C 227.499 356.000,228.464 355.820,228.600 355.600 C 228.736 355.380,229.647 355.200,230.624 355.200 C 231.601 355.200,232.400 355.020,232.400 354.800 C 232.400 354.580,233.120 354.400,234.000 354.400 C 234.880 354.400,235.600 354.220,235.600 354.000 C 235.600 353.780,236.230 353.600,237.000 353.600 C 237.770 353.600,238.400 353.420,238.400 353.200 C 238.400 352.980,238.940 352.800,239.600 352.800 C 240.260 352.800,240.800 352.620,240.800 352.400 C 240.800 352.180,241.239 352.000,241.776 352.000 C 242.313 352.000,242.864 351.820,243.000 351.600 C 243.136 351.380,243.597 351.200,244.024 351.200 C 244.451 351.200,244.800 351.020,244.800 350.800 C 244.800 350.580,245.160 350.400,245.600 350.400 C 246.040 350.400,246.400 350.220,246.400 350.000 C 246.400 349.780,246.760 349.600,247.200 349.600 C 247.640 349.600,248.000 349.420,248.000 349.200 C 248.000 348.980,248.360 348.800,248.800 348.800 C 249.240 348.800,249.600 348.620,249.600 348.400 C 249.600 348.180,249.836 348.000,250.125 348.000 C 250.413 348.000,250.998 347.680,251.425 347.289 C 251.851 346.898,252.830 346.139,253.600 345.602 C 255.259 344.446,255.364 344.341,257.300 341.932 C 258.125 340.905,258.800 339.781,258.800 339.433 C 258.800 339.085,258.980 338.800,259.200 338.800 C 259.420 338.800,259.600 338.530,259.600 338.200 C 259.600 337.870,259.780 337.600,260.000 337.600 C 260.220 337.600,260.400 337.150,260.400 336.600 C 260.400 336.050,260.580 335.600,260.800 335.600 C 261.020 335.600,261.200 335.251,261.200 334.824 C 261.200 334.397,261.380 333.936,261.600 333.800 C 261.820 333.664,262.000 332.933,262.000 332.176 C 262.000 331.419,262.180 330.800,262.400 330.800 C 262.622 330.800,262.800 329.733,262.800 328.400 C 262.800 327.067,262.978 326.000,263.200 326.000 C 263.462 326.000,263.600 318.467,263.600 304.200 L 263.600 282.400 226.200 282.400 L 188.800 282.400 188.800 275.000 L 188.800 267.600 248.400 267.600 C 287.867 267.600,308.000 267.465,308.000 267.200 C 308.000 266.969,309.259 266.800,310.976 266.800 C 312.613 266.800,314.064 266.620,314.200 266.400 C 314.336 266.180,315.157 266.000,316.024 266.000 C 316.891 266.000,317.600 265.820,317.600 265.600 C 317.600 265.380,318.219 265.200,318.976 265.200 C 319.733 265.200,320.464 265.020,320.600 264.800 C 320.736 264.580,321.287 264.400,321.824 264.400 C 322.361 264.400,322.800 264.220,322.800 264.000 C 322.800 263.780,323.250 263.600,323.800 263.600 C 324.350 263.600,324.801 263.465,324.801 263.300 C 324.802 263.135,325.792 262.550,327.000 262.000 C 328.208 261.450,329.198 260.865,329.199 260.700 C 329.199 260.535,329.560 260.400,330.000 260.400 C 330.440 260.400,330.800 260.220,330.800 260.000 C 330.800 259.780,331.083 259.600,331.429 259.600 C 331.774 259.600,332.292 259.375,332.580 259.100 C 332.867 258.825,333.517 258.330,334.025 258.000 C 336.456 256.420,340.088 252.810,341.069 251.000 C 341.426 250.340,342.052 249.509,342.459 249.153 C 342.867 248.797,343.200 248.252,343.200 247.941 C 343.200 247.631,343.560 247.117,344.000 246.800 C 344.440 246.483,344.800 245.903,344.800 245.512 C 344.800 245.120,344.980 244.800,345.200 244.800 C 345.420 244.800,345.600 244.440,345.600 244.000 C 345.600 243.560,345.780 243.200,346.000 243.200 C 346.220 243.200,346.400 242.840,346.400 242.400 C 346.400 241.960,346.580 241.600,346.800 241.600 C 347.020 241.600,347.200 241.240,347.200 240.800 C 347.200 240.360,347.380 240.000,347.600 240.000 C 347.820 240.000,348.000 239.550,348.000 239.000 C 348.000 238.450,348.180 238.000,348.400 238.000 C 348.620 238.000,348.800 237.460,348.800 236.800 C 348.800 236.140,348.980 235.600,349.200 235.600 C 349.420 235.600,349.600 235.071,349.600 234.424 C 349.600 233.777,349.780 233.136,350.000 233.000 C 350.220 232.864,350.400 231.953,350.400 230.976 C 350.400 229.999,350.580 229.200,350.800 229.200 C 351.020 229.200,351.200 228.480,351.200 227.600 C 351.200 226.720,351.380 226.000,351.600 226.000 C 351.820 226.000,352.000 225.201,352.000 224.224 C 352.000 223.247,352.180 222.336,352.400 222.200 C 352.620 222.064,352.800 221.164,352.800 220.200 C 352.800 219.236,352.980 218.336,353.200 218.200 C 353.420 218.064,353.600 216.973,353.600 215.776 C 353.600 214.579,353.780 213.600,354.000 213.600 C 354.226 213.600,354.400 212.458,354.400 210.974 C 354.400 209.529,354.586 208.001,354.812 207.577 C 355.341 206.589,355.374 180.093,354.847 179.454 C 354.642 179.204,354.378 177.830,354.261 176.400 C 354.144 174.970,353.851 172.630,353.609 171.200 C 353.368 169.770,353.070 167.790,352.946 166.800 C 352.823 165.810,352.560 164.829,352.361 164.620 C 352.163 164.411,352.000 163.567,352.000 162.744 C 352.000 161.921,351.820 161.136,351.600 161.000 C 351.380 160.864,351.200 160.043,351.200 159.176 C 351.200 158.309,351.020 157.600,350.800 157.600 C 350.580 157.600,350.400 156.880,350.400 156.000 C 350.400 155.120,350.220 154.400,350.000 154.400 C 349.780 154.400,349.600 153.680,349.600 152.800 C 349.600 151.920,349.420 151.200,349.200 151.200 C 348.980 151.200,348.800 150.660,348.800 150.000 C 348.800 149.340,348.620 148.800,348.400 148.800 C 348.180 148.800,348.000 148.260,348.000 147.600 C 348.000 146.940,347.820 146.400,347.600 146.400 C 347.380 146.400,347.200 145.961,347.200 145.424 C 347.200 144.887,347.020 144.336,346.800 144.200 C 346.580 144.064,346.400 143.603,346.400 143.176 C 346.400 142.749,346.220 142.400,346.000 142.400 C 345.780 142.400,345.600 141.950,345.600 141.400 C 345.600 140.850,345.420 140.400,345.200 140.400 C 344.980 140.400,344.800 140.040,344.800 139.600 C 344.800 139.160,344.620 138.800,344.400 138.800 C 344.180 138.800,344.000 138.440,344.000 138.000 C 344.000 137.560,343.820 137.200,343.600 137.200 C 343.380 137.200,343.200 136.906,343.200 136.547 C 343.200 136.188,342.869 135.603,342.464 135.247 C 342.059 134.891,341.606 134.105,341.456 133.500 C 341.307 132.895,341.008 132.400,340.792 132.400 C 340.577 132.400,340.400 132.157,340.400 131.859 C 340.400 131.562,339.860 130.754,339.200 130.063 C 338.540 129.372,338.000 128.696,338.000 128.560 C 338.000 128.179,333.663 124.000,333.268 124.000 C 333.076 124.000,332.354 123.460,331.663 122.800 C 330.972 122.140,330.175 121.600,329.892 121.600 C 329.609 121.600,329.117 121.240,328.800 120.800 C 328.483 120.360,327.903 120.000,327.512 120.000 C 327.120 120.000,326.800 119.820,326.800 119.600 C 326.800 119.380,326.440 119.200,326.000 119.200 C 325.560 119.200,325.200 119.020,325.200 118.800 C 325.200 118.580,324.761 118.400,324.224 118.400 C 323.687 118.400,323.136 118.220,323.000 118.000 C 322.864 117.780,322.324 117.600,321.800 117.600 C 321.276 117.600,320.736 117.420,320.600 117.200 C 320.464 116.980,319.553 116.800,318.576 116.800 C 317.599 116.800,316.800 116.620,316.800 116.400 C 316.800 116.139,310.269 116.000,298.008 116.000 L 279.215 116.000 279.022 116.900 M238.000 301.600 C 238.000 301.820,238.270 302.000,238.600 302.000 C 238.930 302.000,239.560 302.360,240.000 302.800 C 240.440 303.240,241.026 303.600,241.303 303.600 C 241.800 303.600,244.000 306.876,244.000 307.616 C 244.000 307.827,244.180 308.000,244.400 308.000 C 244.620 308.000,244.800 308.540,244.800 309.200 C 244.800 309.860,244.980 310.400,245.200 310.400 C 245.420 310.400,245.600 311.289,245.600 312.376 C 245.600 313.463,245.420 314.464,245.200 314.600 C 244.980 314.736,244.800 315.199,244.800 315.629 C 244.800 316.449,244.147 317.792,243.300 318.713 C 243.025 319.012,242.800 319.397,242.800 319.567 C 242.800 320.028,241.363 321.600,240.941 321.600 C 240.741 321.600,240.317 321.960,240.000 322.400 C 239.683 322.840,239.114 323.200,238.735 323.200 C 238.357 323.200,237.936 323.380,237.800 323.600 C 237.663 323.821,235.863 324.000,233.776 324.000 C 231.525 324.000,230.000 323.838,230.000 323.600 C 230.000 323.380,229.640 323.200,229.200 323.200 C 228.760 323.200,228.400 323.020,228.400 322.800 C 228.400 322.580,228.175 322.400,227.900 322.400 C 227.106 322.399,225.383 320.726,224.603 319.200 C 224.210 318.430,223.778 317.710,223.642 317.600 C 222.501 316.673,222.003 310.949,222.887 308.919 C 224.180 305.952,226.701 302.800,227.782 302.800 C 228.122 302.800,228.400 302.620,228.400 302.400 C 228.400 302.180,228.760 302.000,229.200 302.000 C 229.640 302.000,230.000 301.820,230.000 301.600 C 230.000 301.360,231.600 301.200,234.000 301.200 C 236.400 301.200,238.000 301.360,238.000 301.600 " stroke="none" fill="#fcc404" fill-rule="evenodd"></path><path id="path2" d="" stroke="none" fill="#409cc0" fill-rule="evenodd"></path><path id="path3" d="" stroke="none" fill="#409cc0" fill-rule="evenodd"></path><path id="path4" d="" stroke="none" fill="#409cc0" fill-rule="evenodd"></path></g></svg>